<?xml version="1.0" standalone="no"?>
<!DOCTYPE svg PUBLIC "-//W3C//DTD SVG 1.1//EN" "http://www.w3.org/Graphics/SVG/1.1/DTD/svg11.dtd" >
<svg xmlns="http://www.w3.org/2000/svg">
<metadata></metadata>
<defs>
<font id="seravekmedium" horiz-adv-x="1075" >
<font-face units-per-em="2048" ascent="1638" descent="-410" />
<missing-glyph horiz-adv-x="440" />
<glyph unicode="&#xfb01;" horiz-adv-x="1234" d="M41 778v219h162v29q0 231 117.5 335.5t328.5 104.5q84 0 156 -13t125 -38l-31 -201q-47 16 -101.5 26.5t-115.5 10.5q-104 0 -152.5 -50t-48.5 -154v-50h621v-997h-281v778h-340v-778h-278v778h-162z" />
<glyph unicode="&#xfb02;" horiz-adv-x="1335" d="M41 778v219h162v33q0 205 105.5 320.5t326.5 115.5q53 0 105.5 -5t103.5 -15h280v-1157q0 -47 19.5 -70.5t66.5 -23.5q18 0 39 2t39 6l10 -197q-35 -10 -86 -17t-100 -7q-76 0 -127 23.5t-83 63.5t-45 90t-13 103v975q-35 8 -74 12t-82 4q-111 0 -159 -54t-48 -165v-37 h228v-219h-228v-778h-278v778h-162z" />
<glyph unicode="&#xfb03;" horiz-adv-x="1886" d="M41 778v219h162v35q0 225 110.5 329.5t296.5 104.5q47 0 92.5 -5t75.5 -15l-18 -215q-20 6 -46 9t-50 3q-98 0 -140.5 -50t-42.5 -149v-47h373v29q0 231 118 335.5t328 104.5q84 0 156 -13t125 -38l-31 -201q-47 16 -101 26.5t-116 10.5q-104 0 -152 -50t-48 -154v-50 h620v-997h-280v778h-340v-778h-279v778h-373v-778h-278v778h-162z" />
<glyph unicode="&#xfb04;" horiz-adv-x="1986" d="M41 778v219h162v35q0 225 110.5 329.5t296.5 104.5q47 0 92.5 -5t75.5 -15l-18 -215q-20 6 -46 9t-50 3q-98 0 -140.5 -50t-42.5 -149v-47h373v33q0 205 105.5 320.5t326.5 115.5q53 0 105.5 -5t103.5 -15h281v-1157q0 -47 19.5 -70.5t66.5 -23.5q18 0 38.5 2t38.5 6 l11 -197q-35 -10 -86.5 -17t-100.5 -7q-76 0 -127 23.5t-82.5 63.5t-45 90t-13.5 103v975q-35 8 -74 12t-82 4q-111 0 -158.5 -54t-47.5 -165v-37h227v-219h-227v-778h-279v778h-373v-778h-278v778h-162z" />
<glyph horiz-adv-x="0" />
<glyph unicode="&#xd;" horiz-adv-x="681" />
<glyph unicode=" "  horiz-adv-x="440" />
<glyph unicode="&#x09;" horiz-adv-x="440" />
<glyph unicode="&#xa0;" horiz-adv-x="440" />
<glyph unicode="!" horiz-adv-x="671" d="M174 147q0 66 42 114t120 48t120 -48t42 -114t-42 -114.5t-120 -48.5t-120 48.5t-42 114.5zM188 940v424h295v-424l-65 -510h-164z" />
<glyph unicode="&#x22;" horiz-adv-x="993" d="M143 1364h283l-31 -510h-221zM567 1364h283l-31 -510h-221z" />
<glyph unicode="#" horiz-adv-x="1425" d="M92 330v184h219l37 352h-215v185h236l34 313h220l-35 -313h342l35 313h219l-35 -313h194v-185h-213l-36 -352h198v-184h-219l-35 -330h-219l35 330h-342l-35 -330h-219l35 330h-201zM530 514h344l37 352h-344z" />
<glyph unicode="$" horiz-adv-x="1036" d="M102 80l50 211q68 -33 146.5 -51.5t170.5 -18.5q86 0 143.5 38t57.5 118q0 74 -54.5 119t-158.5 96q-84 39 -147.5 80t-105.5 88t-63.5 105.5t-21.5 133.5q0 147 78.5 232.5t201.5 111.5v267h250v-252q63 -4 129 -23.5t123 -48.5l-47 -213q-78 35 -146.5 52.5 t-140.5 17.5q-174 0 -174 -133q0 -33 13.5 -57.5t38 -46t61.5 -43t86 -46.5q49 -27 110.5 -60.5t115.5 -82.5t90 -113.5t36 -152.5q0 -147 -86 -249t-229 -141v-264h-250v250q-76 10 -147.5 29.5t-129.5 46.5z" />
<glyph unicode="%" horiz-adv-x="2011" d="M102 983q0 76 22.5 148.5t70 130t118 92.5t166.5 35t167 -35t118 -92.5t69.5 -130t22.5 -148.5q0 -74 -22.5 -146.5t-69.5 -130t-118 -92t-167 -34.5t-166.5 34.5t-118 92t-70 130t-22.5 146.5zM328 983q0 -96 35.5 -158.5t115.5 -62.5t116 62.5t36 158.5t-37 159.5 t-115 63.5t-114.5 -63.5t-36.5 -159.5zM600 76l625 1313l200 -97l-626 -1317zM1165 379q0 76 22.5 148.5t70 130t118 92t166.5 34.5t167 -34.5t118 -92t69.5 -130t22.5 -148.5q0 -74 -22.5 -146.5t-69.5 -130t-118 -92.5t-167 -35t-166.5 35t-118 92.5t-70 130t-22.5 146.5z M1391 379q0 -96 35.5 -158.5t115.5 -62.5t116 62.5t36 158.5t-37 159.5t-115 63.5t-114.5 -63.5t-36.5 -159.5z" />
<glyph unicode="&#x26;" horiz-adv-x="1521" d="M92 313q0 63 22.5 116.5t60.5 98.5t86 83t99 73q-86 76 -143 161t-57 191q0 78 27.5 142.5t82 111.5t131 73t174.5 26q80 0 151 -19.5t123 -58.5t83 -96.5t31 -131.5q0 -70 -24 -126t-61.5 -102t-83.5 -85t-89 -74q70 -53 142.5 -106t151.5 -107q49 68 91.5 146t89.5 176 l204 -100q-47 -104 -96 -191.5t-102 -155.5q74 -47 149.5 -93t149.5 -93l-121 -197q-88 51 -170 103.5t-160 103.5q-115 -109 -240.5 -158t-263.5 -49q-96 0 -176 22.5t-138 67t-91 106.5t-33 142zM373 334q0 -70 45 -111t139 -41q86 0 157.5 33t137.5 92q-80 53 -168 117.5 t-160 124.5q-59 -47 -105 -97.5t-46 -117.5zM414 1038q0 -63 34.5 -116.5t90.5 -100.5q37 27 69.5 53.5t57 56.5t39 62.5t14.5 73.5q0 59 -42 92t-106 33q-76 0 -116.5 -40t-40.5 -114z" />
<glyph unicode="'" horiz-adv-x="569" d="M143 1364h283l-31 -510h-221z" />
<glyph unicode="(" horiz-adv-x="743" d="M154 573q0 256 79.5 495t233.5 460l195 -109q-66 -127 -110 -240.5t-69.5 -218t-36 -201t-10.5 -186.5t10.5 -186t36 -200.5t69.5 -219t110 -239.5l-195 -109q-154 221 -233.5 459.5t-79.5 494.5z" />
<glyph unicode=")" horiz-adv-x="743" d="M82 -272q66 125 110 239.5t69.5 219t35.5 200.5t10 186t-10 186.5t-35.5 201t-70 218t-109.5 240.5l194 109q154 -221 234 -460t80 -495t-80 -494.5t-234 -459.5z" />
<glyph unicode="*" horiz-adv-x="841" d="M92 987l201 117l-201 117l64 108l202 -119v236h125v-236l203 119l64 -108l-203 -117l203 -117l-62 -110l-205 118v-233h-125v233l-206 -118z" />
<glyph unicode="+" horiz-adv-x="1216" d="M127 557v209h360v397h242v-397h361v-209h-361v-397h-242v397h-360z" />
<glyph unicode="," horiz-adv-x="589" d="M66 -229q27 63 48 120.5t35.5 117t22.5 124t10 137.5l275 -22q-10 -162 -60.5 -304.5t-148.5 -269.5z" />
<glyph unicode="-" horiz-adv-x="786" d="M123 424v227h541v-227h-541z" />
<glyph unicode="." horiz-adv-x="569" d="M123 147q0 66 42 114t120 48t119.5 -48t41.5 -114t-42 -114.5t-119 -48.5q-78 0 -120 48.5t-42 114.5z" />
<glyph unicode="/" horiz-adv-x="913" d="M82 -117l516 1565l244 -84l-516 -1569z" />
<glyph unicode="0" horiz-adv-x="1257" d="M92 682q0 156 33 286t100.5 223t168 145.5t235.5 52.5t235.5 -52.5t168 -145.5t100 -223t32.5 -286t-32.5 -286t-100 -223t-168 -145.5t-235.5 -52.5t-235.5 52.5t-168 145.5t-100.5 223t-33 286zM375 682q0 -113 13 -202t44 -151.5t79 -95t118 -32.5q137 0 195.5 128 t58.5 353q0 113 -13.5 202t-44 151.5t-79 95t-117.5 32.5q-70 0 -118 -32.5t-79 -95t-44 -151.5t-13 -202z" />
<glyph unicode="1" horiz-adv-x="778" d="M20 1190l437 174h168v-1364h-283v1061l-254 -92z" />
<glyph unicode="2" horiz-adv-x="1024" d="M41 164q55 57 101 104t87 89t79 83t79 86q45 51 90 102.5t79 104.5t55.5 108.5t21.5 112.5q0 96 -55.5 150.5t-153.5 54.5q-76 0 -135.5 -19.5t-108.5 -49.5l-65 196q74 47 164 75t198 28q203 0 320.5 -109t117.5 -303q0 -82 -20.5 -153.5t-57 -136t-87 -125 t-109.5 -118.5q-63 -61 -120.5 -114.5t-112.5 -102.5h520v-227h-848z" />
<glyph unicode="3" horiz-adv-x="1003" d="M72 49l47 213q63 -29 131.5 -46t146.5 -17q117 0 174.5 51t57.5 129q0 104 -86 150t-221 46h-115v228h76q152 0 234.5 55t82.5 152q0 74 -50 113.5t-142 39.5q-131 0 -246 -57l-49 203q66 37 159 58.5t193 21.5q88 0 165 -23t133 -66t88 -104t32 -139q0 -117 -64.5 -206 t-191.5 -142q57 -16 109 -46t91 -72t61.5 -97t22.5 -123q0 -92 -37.5 -165t-102 -124t-153 -79t-188.5 -28q-94 0 -190.5 20.5t-167.5 53.5z" />
<glyph unicode="4" horiz-adv-x="1167" d="M59 555l527 809h342v-799h184v-217h-184v-348h-277v348h-551zM322 565h329v543z" />
<glyph unicode="5" horiz-adv-x="1052" d="M102 37l39 219q66 -25 139.5 -40t147.5 -15q119 0 189.5 49t70.5 145q0 109 -85 155t-224 46h-221v768h737v-229h-457v-316h43q104 0 193.5 -26.5t156 -77.5t103.5 -127t37 -176q0 -102 -41 -183.5t-113 -137.5t-167 -86t-206 -30q-92 0 -186 17.5t-156 44.5z" />
<glyph unicode="6" horiz-adv-x="1126" d="M92 518q0 162 48 296t139.5 242.5t222.5 191.5t295 141l90 -209q-92 -47 -173 -91.5t-147.5 -98.5t-115 -123.5t-72.5 -168.5q49 53 119.5 83t156.5 30q88 0 162 -27.5t126 -80t82 -126t30 -165.5q0 -94 -36 -174t-99.5 -138.5t-147.5 -91.5t-178 -33q-129 0 -223.5 48.5 t-155.5 125t-92 174t-31 195.5zM375 500q0 -59 10 -114.5t35.5 -98.5t66.5 -70t101 -27q92 0 146 60.5t54 152.5q0 90 -51 141.5t-143 51.5q-74 0 -128 -28.5t-91 -67.5z" />
<glyph unicode="7" horiz-adv-x="952" d="M72 1139v225h800l39 -223l-522 -1141h-280l532 1139h-569z" />
<glyph unicode="8" horiz-adv-x="1140" d="M109 336q0 63 24.5 117.5t63.5 98.5t88 82t100 73q-102 70 -171 148.5t-69 188.5q0 76 30 139.5t85 109.5t134 71t177 25q94 0 172 -23t134.5 -64.5t87 -103t30.5 -139.5q0 -55 -20.5 -102.5t-54 -89.5t-76.5 -77.5t-88 -66.5q55 -35 105 -73t88 -84t60.5 -101t22.5 -123 q0 -78 -35.5 -145.5t-99 -116.5t-147.5 -77t-179 -28q-104 0 -190 26t-146.5 72t-93 112.5t-32.5 150.5zM375 340q0 -78 52 -120t144 -42q86 0 140.5 46t54.5 118q0 76 -51 130t-144 114q-41 -31 -76.5 -57.5t-62 -55.5t-42 -60.5t-15.5 -72.5zM408 1051q0 -59 35.5 -103.5 t127.5 -105.5q72 49 117 98t45 111q0 66 -45 101.5t-117 35.5q-74 0 -118.5 -39t-44.5 -98z" />
<glyph unicode="9" horiz-adv-x="1136" d="M82 952q0 98 34 179t95 138.5t146 88.5t186 31q131 0 226 -48.5t156.5 -125t90 -174t28.5 -195.5q0 -164 -48 -299t-139 -242.5t-222 -189.5t-295 -140l-90 209q92 41 173 85t146.5 99.5t114.5 127t74 170.5q-49 -53 -120 -83t-157 -30q-88 0 -161.5 27.5t-126 80 t-82 126t-29.5 165.5zM348 963q0 -94 53.5 -144.5t141.5 -50.5q74 0 128 28.5t91 67.5q0 57 -10.5 113.5t-36 99.5t-66.5 70t-100 27q-92 0 -146.5 -57.5t-54.5 -153.5z" />
<glyph unicode=":" horiz-adv-x="569" d="M123 147q0 66 42 114t120 48t119.5 -48t41.5 -114t-42 -114.5t-119 -48.5q-78 0 -120 48.5t-42 114.5zM123 743q0 66 42 114t120 48t119.5 -48t41.5 -114t-42 -114.5t-119 -48.5q-78 0 -120 48.5t-42 114.5z" />
<glyph unicode=";" horiz-adv-x="577" d="M51 -229q27 63 48.5 120.5t36 117t22.5 124t10 137.5l274 -22q-10 -162 -60 -304.5t-149 -269.5zM139 743q0 66 42 114t120 48t120 -48t42 -114t-42 -114.5t-120 -48.5t-120 48.5t-42 114.5z" />
<glyph unicode="&#x3c;" horiz-adv-x="1210" d="M133 551v221l879 412l86 -195l-721 -327l721 -328l-86 -195z" />
<glyph unicode="=" horiz-adv-x="1249" d="M154 328v207h942v-207h-942zM154 788v207h942v-207h-942z" />
<glyph unicode="&#x3e;" horiz-adv-x="1210" d="M113 334l721 328l-721 327l86 195l878 -412v-221l-878 -412z" />
<glyph unicode="?" horiz-adv-x="970" d="M92 1288q78 47 172 74t209 27q86 0 162 -23t132 -69t89 -114.5t33 -158.5q0 -96 -42 -177t-112.5 -150.5t-163 -133t-192.5 -125.5l-131 189q72 53 136.5 99t113.5 92t78.5 92t29.5 100q0 74 -47 111.5t-125 37.5q-82 0 -144.5 -20.5t-123.5 -55.5zM248 147q0 66 42 114 t120 48t119.5 -48t41.5 -114t-42 -114.5t-119 -48.5q-78 0 -120 48.5t-42 114.5z" />
<glyph unicode="@" horiz-adv-x="1734" d="M123 420q0 172 57.5 316.5t164 250t258 163.5t339.5 58q154 0 279 -44t214 -121.5t138 -183t49 -228.5q0 -104 -27.5 -192.5t-81 -152t-129 -99t-172.5 -35.5q-111 0 -171 53t-70 127q-43 -70 -103.5 -113t-126.5 -43q-98 0 -146 67.5t-48 162.5q0 86 24.5 161.5 t72.5 132t121 89t169 32.5q78 0 144.5 -21.5t125.5 -56.5l-53 -301q-2 -10 -3 -21t-1 -22q0 -47 22.5 -76.5t73.5 -29.5q86 0 143.5 90t57.5 240q0 104 -38 184t-106.5 135t-163 84t-206.5 29q-145 0 -260 -46t-196 -128t-124 -198t-43 -253q0 -248 143.5 -393.5 t421.5 -145.5q145 0 268.5 30t243.5 83l46 -139q-133 -66 -282 -94.5t-286 -28.5q-178 0 -316 54t-231.5 147.5t-142.5 216.5t-49 260zM745 428q0 -39 13.5 -66.5t48.5 -27.5q41 0 77 38t68 93l35 192q-26 11 -61 11q-47 0 -82 -20.5t-56.5 -54.5t-32 -77t-10.5 -88z" />
<glyph unicode="A" horiz-adv-x="1425" d="M39 0l518 1364h311l518 -1364h-296l-97 287h-561l-96 -287h-297zM508 514h410l-205 621z" />
<glyph unicode="B" horiz-adv-x="1191" d="M143 0v1364h467q104 0 189.5 -23.5t145 -65.5t92 -101.5t32.5 -131.5q0 -129 -74.5 -208.5t-203.5 -120.5q147 -23 238 -106t91 -224q0 -90 -41 -160.5t-114.5 -120t-178 -76t-231.5 -26.5h-412zM422 217h151q135 0 200 51t65 135q0 92 -78 139.5t-201 47.5h-137v-373z M422 807h123q106 0 173.5 47t67.5 133q0 82 -57 121t-156 39h-151v-340z" />
<glyph unicode="C" horiz-adv-x="1271" d="M78 682q0 154 47 283t139 223t227.5 147.5t311.5 53.5q51 0 104.5 -5.5t103.5 -14.5t96 -22.5t83 -31.5l-41 -211q-66 25 -145.5 40t-157.5 15q-233 0 -357 -120.5t-124 -356.5t123.5 -356.5t357.5 -120.5q78 0 157.5 15.5t145.5 39.5l41 -211q-37 -18 -83 -31.5 t-96 -22.5t-103.5 -14.5t-104.5 -5.5q-176 0 -311.5 53.5t-227.5 147.5t-139 223t-47 283z" />
<glyph unicode="D" horiz-adv-x="1413" d="M143 0v1364h412q180 0 326.5 -51t250 -142.5t160 -216.5t56.5 -272t-56.5 -272t-160 -216.5t-250 -142.5t-326.5 -51h-412zM430 229h131q109 0 201 31t158.5 89.5t103.5 142t37 190.5q0 106 -37 190t-103.5 142.5t-158.5 89.5t-201 31h-131v-906z" />
<glyph unicode="E" d="M143 0v1364h820v-227h-533v-330h508v-227h-508v-353h539v-227h-826z" />
<glyph unicode="F" horiz-adv-x="1040" d="M143 0v1364h824v-229h-537v-361h512v-229h-512v-545h-287z" />
<glyph unicode="G" horiz-adv-x="1409" d="M76 664q0 162 50 296t146.5 229t233.5 147.5t313 52.5q123 0 229.5 -18.5t206.5 -65.5l-41 -224q-90 37 -180 57.5t-192 20.5q-111 0 -199 -30.5t-150.5 -92t-96.5 -156t-34 -218.5q0 -231 119 -350t357 -119q49 0 99 7t91 19v404h258v-557q-96 -41 -226 -66t-259 -25 q-170 0 -304.5 50.5t-228.5 141.5t-143 217t-49 280z" />
<glyph unicode="H" horiz-adv-x="1425" d="M143 0v1364h287v-553h565v553h287v-1364h-287v573h-565v-573h-287z" />
<glyph unicode="I" horiz-adv-x="593" d="M154 0v1364h286v-1364h-286z" />
<glyph unicode="J" horiz-adv-x="589" d="M-27 -193q47 53 82 105.5t58.5 108t35 118t11.5 135.5v1090h286v-1042q0 -94 -11 -178.5t-40.5 -164t-83 -160.5t-139.5 -167z" />
<glyph unicode="K" horiz-adv-x="1280" d="M143 0v1364h287v-655l473 655h332l-502 -674l537 -690h-355l-485 670v-670h-287z" />
<glyph unicode="L" horiz-adv-x="985" d="M143 0v1364h287v-1135h508v-229h-795z" />
<glyph unicode="M" horiz-adv-x="1748" d="M98 0l101 1364h258l417 -881l418 881h258l101 -1364h-281l-47 848l-301 -619h-295l-301 619l-47 -848h-281z" />
<glyph unicode="N" horiz-adv-x="1472" d="M143 0v1364h275l637 -893v893h274v-1364h-274l-637 893v-893h-275z" />
<glyph unicode="O" horiz-adv-x="1527" d="M78 682q0 143 45 272t133 225.5t216 153t292 56.5t292 -56.5t215 -153t133 -225.5t46 -272q0 -145 -46 -273t-133 -224.5t-215 -153t-292 -56.5t-292 56.5t-216 153t-133 224.5t-45 273zM365 682q0 -102 24.5 -190.5t74.5 -153t125 -101t175 -36.5t175 36.5t125 101 t74.5 153t24.5 190.5t-24.5 190.5t-74.5 153t-125 101t-175 36.5t-175 -36.5t-125 -101t-74.5 -153t-24.5 -190.5z" />
<glyph unicode="P" horiz-adv-x="1126" d="M143 0v1364h373q123 0 228.5 -25.5t183.5 -79t122 -134t44 -191.5q0 -113 -47.5 -197t-129 -140t-193.5 -84t-239 -28h-55v-485h-287zM430 709h70q143 0 225 55t82 170q0 106 -79 156.5t-214 50.5h-84v-432z" />
<glyph unicode="Q" horiz-adv-x="1527" d="M78 682q0 143 45 272t133 225.5t216 153t292 56.5t292 -56.5t215 -153t133 -225.5t46 -272q0 -195 -81 -355.5t-234 -252.5l340 -219l-140 -205l-495 330q-16 -2 -37 -3.5t-39 -1.5q-164 0 -292 56.5t-216 153t-133 224.5t-45 273zM365 682q0 -102 24.5 -190.5t74.5 -153 t125 -101t175 -36.5t175 36.5t125 101t74.5 153t24.5 190.5t-24.5 190.5t-74.5 153t-125 101t-175 36.5t-175 -36.5t-125 -101t-74.5 -153t-24.5 -190.5z" />
<glyph unicode="R" horiz-adv-x="1273" d="M143 0v1364h408q127 0 233.5 -25.5t183 -78t119.5 -130.5t43 -182q0 -145 -81.5 -244.5t-235.5 -152.5l461 -551h-356l-396 498h-92v-498h-287zM430 715h86q147 0 237.5 57t90.5 170q0 104 -82 151.5t-213 47.5h-119v-426z" />
<glyph unicode="S" horiz-adv-x="1079" d="M82 68l59 219q74 -35 165 -59.5t188 -24.5q102 0 166.5 42t64.5 122q0 74 -61.5 121t-188.5 98q-90 37 -159.5 76.5t-116.5 89t-73 110t-26 135.5q0 188 128 290t343 102q111 0 203 -20.5t178 -65.5l-53 -220q-72 35 -150.5 56.5t-160.5 21.5q-90 0 -145.5 -33.5 t-55.5 -105.5q0 -33 9.5 -57.5t34 -46t64.5 -43t101 -48.5q82 -35 156.5 -73.5t132 -90t92.5 -119t35 -155.5q0 -90 -37 -166t-103.5 -131t-161 -86t-208.5 -31q-109 0 -218.5 24t-201.5 69z" />
<glyph unicode="T" horiz-adv-x="1118" d="M39 1135v229h1040v-229h-377v-1135h-286v1135h-377z" />
<glyph unicode="U" horiz-adv-x="1404" d="M139 492v872h287v-885q0 -129 69.5 -201.5t206.5 -72.5t207 72.5t70 201.5v885h287v-872q0 -117 -39 -212.5t-111 -163t-177 -104.5t-237 -37q-133 0 -237.5 37t-176 104.5t-110.5 163t-39 212.5z" />
<glyph unicode="V" horiz-adv-x="1261" d="M6 1364h299l326 -1073l325 1073h299l-458 -1364h-332z" />
<glyph unicode="W" horiz-adv-x="2002" d="M33 1364h291l241 -1002l275 1002h323l275 -1002l241 1002h291l-381 -1364h-291l-297 1069l-296 -1069h-291z" />
<glyph unicode="X" horiz-adv-x="1302" d="M43 0l457 686l-449 678h311l289 -461l289 461h311l-448 -678l457 -686h-314l-295 465l-295 -465h-313z" />
<glyph unicode="Y" horiz-adv-x="1187" d="M0 1364h313l281 -600l280 600h314l-451 -854v-510h-286v510z" />
<glyph unicode="Z" horiz-adv-x="1161" d="M109 0v229l636 906h-612v229h930v-229l-637 -906h649v-229h-966z" />
<glyph unicode="[" horiz-adv-x="784" d="M184 -360v1867h498v-213h-217v-1441h217v-213h-498z" />
<glyph unicode="\" horiz-adv-x="913" d="M72 1364l243 84l516 -1565l-243 -88z" />
<glyph unicode="]" horiz-adv-x="784" d="M102 -147h217v1441h-217v213h498v-1867h-498v213z" />
<glyph unicode="^" horiz-adv-x="1077" d="M102 727l301 637h271l301 -637l-215 -88l-221 500l-222 -500z" />
<glyph unicode="_" horiz-adv-x="905" d="M-4 -326h913v-186h-913v186z" />
<glyph unicode="`" horiz-adv-x="888" d="M215 1483h309l150 -340h-232z" />
<glyph unicode="a" d="M82 262q0 137 92 209t252 82q61 4 126.5 6t119.5 4v35q0 96 -47 146.5t-148 50.5q-78 0 -147.5 -18.5t-122.5 -47.5l-55 197q78 45 172 68.5t202 23.5q199 0 312.5 -108.5t113.5 -321.5v-588h-270v106q-55 -53 -133 -89.5t-180 -36.5q-66 0 -119 21.5t-90 59t-57.5 89 t-20.5 112.5zM354 268q0 -49 32 -73.5t85 -24.5q59 0 110.5 20.5t90.5 51.5v157q-43 -4 -92.5 -8t-90.5 -10q-61 -10 -98 -33.5t-37 -79.5z" />
<glyph unicode="b" horiz-adv-x="1169" d="M131 70v1376h281v-531q45 45 108.5 74t155.5 29q98 0 177 -38t134 -105.5t85 -162t30 -204.5q0 -115 -35 -212t-104.5 -168t-175 -109.5t-244.5 -38.5q-115 0 -219.5 24.5t-192.5 65.5zM412 215q25 -12 59.5 -18.5t75.5 -6.5q74 0 126 24t85 66t48 99t15 125 q0 131 -54 214t-169 83q-57 0 -102 -17.5t-84 -50.5v-518z" />
<glyph unicode="c" horiz-adv-x="933" d="M63 500q0 111 34 206t100.5 163.5t165 108.5t227.5 40q74 0 152.5 -15.5t131.5 -44.5l-30 -200q-96 43 -213 43q-147 0 -217 -81t-70 -220t69.5 -221t217.5 -82q117 0 213 43l30 -201q-53 -29 -131.5 -44t-152.5 -15q-129 0 -227.5 39.5t-165 109.5t-100.5 165t-34 206z " />
<glyph unicode="d" horiz-adv-x="1171" d="M68 487q0 129 41 228.5t110.5 166t162.5 101.5t200 35q53 0 97 -7t79 -20v455h280v-1446h-268v129q-49 -66 -126 -107.5t-181 -41.5q-86 0 -159 37.5t-125 105t-81.5 161t-29.5 203.5zM348 492q0 -63 12.5 -118t38 -93.5t65.5 -61t95 -22.5q66 0 114 25.5t85 66.5v495 q-57 20 -135 21q-135 0 -205 -83t-70 -230z" />
<glyph unicode="e" horiz-adv-x="1038" d="M68 494q0 117 33.5 214t97 165.5t154.5 106.5t206 38q98 0 175 -31t128 -87t78 -135t27 -177q0 -41 -5.5 -83t-15.5 -77h-592q4 -111 67.5 -176.5t203.5 -65.5q80 0 155.5 15.5t134.5 44.5l35 -191q-74 -37 -168 -56t-194 -19q-125 0 -221.5 36.5t-163 104t-101 163 t-34.5 210.5zM356 616h342q2 20 2 38q0 70 -30 116q-38 58 -127 59q-86 0 -132 -60t-55 -153z" />
<glyph unicode="f" horiz-adv-x="743" d="M41 778v219h162v35q0 223 111.5 328.5t297.5 105.5q47 0 93.5 -5t89.5 -21l-17 -211q-25 8 -54.5 11t-57.5 3q-94 0 -139.5 -46t-45.5 -153v-47h244v-219h-244v-778h-278v778h-162z" />
<glyph unicode="g" horiz-adv-x="1064" d="M16 -188q0 51 22.5 89t58.5 65.5t82 45t95 29.5q-43 23 -67.5 56.5t-24.5 82.5q0 35 13.5 63.5t33 51t44 39t49.5 26.5q-121 35 -185.5 118t-64.5 196q0 74 27.5 136t80.5 108.5t131 73t178 26.5q41 0 79 -5t73 -16h389v-186h-158q35 -59 35 -137q0 -72 -28.5 -133.5 t-82 -107.5t-131 -71.5t-176.5 -25.5h-13t-21 2q-10 -16 -16.5 -29.5t-6.5 -34.5q0 -35 31 -49t80 -18l164 -10q154 -10 240.5 -69.5t86.5 -193.5q0 -90 -48 -159.5t-128 -117.5t-183.5 -73.5t-213.5 -25.5q-86 0 -166 13t-142.5 44t-99.5 79t-37 118zM281 -135 q0 -63 54 -93t148 -30q53 0 105.5 10t93.5 29.5t66.5 48.5t25.5 68q0 49 -40 68.5t-105 23.5l-228 18q-41 -23 -80.5 -55.5t-39.5 -87.5zM317 676q0 -76 47 -119t125 -43t125.5 44t47.5 118q0 76 -46.5 120t-126.5 44t-126 -43t-46 -121z" />
<glyph unicode="h" horiz-adv-x="1177" d="M133 0v1446h281v-569q49 72 121.5 106.5t158.5 34.5q96 0 165 -41t112 -109.5t63.5 -160t20.5 -189.5v-518h-281v520q0 135 -42 205t-138 70q-61 0 -106.5 -29t-73.5 -68v-698h-281z" />
<glyph unicode="i" horiz-adv-x="546" d="M111 1288q0 68 45 115t116 47q72 0 118 -47t46 -115q0 -66 -46 -114t-118 -48t-116.5 48t-44.5 114zM133 0v997h281v-997h-281z" />
<glyph unicode="j" horiz-adv-x="561" d="M-55 -283q51 55 89 108.5t63.5 112t37.5 124t12 145.5v790h281v-759q0 -109 -15.5 -199t-50 -172t-92 -157t-143.5 -152zM125 1288q0 68 45 115t117 47t118 -47t46 -115q0 -66 -46.5 -114t-117.5 -48q-72 0 -117 48t-45 114z" />
<glyph unicode="k" horiz-adv-x="1101" d="M133 0v1446h281v-918l331 469h312l-355 -491l404 -506h-334l-358 485v-485h-281z" />
<glyph unicode="l" horiz-adv-x="608" d="M119 262v1184h280v-1157q0 -47 19.5 -70.5t66.5 -23.5q18 0 39 2t39 6l10 -197q-35 -10 -86 -17t-100 -7q-76 0 -127 23.5t-83 63.5t-45 90t-13 103z" />
<glyph unicode="m" horiz-adv-x="1789" d="M133 0v997h270v-135q49 80 125 118t166 38q104 0 172 -47t109 -125q68 94 151.5 133t188.5 39q96 0 162.5 -38t108.5 -105.5t61.5 -158.5t19.5 -198v-518h-281v520q0 139 -38.5 207t-130.5 68q-66 0 -114 -37t-77 -78q6 -37 10 -79t4 -83v-518h-280v520q0 139 -39 207 t-131 68q-63 0 -105.5 -29t-70.5 -68v-698h-281z" />
<glyph unicode="n" horiz-adv-x="1177" d="M133 0v997h270v-135q49 80 125 118t166 38q96 0 165 -41t112 -109.5t63.5 -160t20.5 -189.5v-518h-281v520q0 135 -42 205t-138 70q-61 0 -106.5 -29t-73.5 -68v-698h-281z" />
<glyph unicode="o" horiz-adv-x="1163" d="M68 498q0 109 33.5 203t99 164.5t161 111.5t220.5 41t220 -41t160.5 -111.5t99.5 -164.5t34 -203t-34 -203t-99.5 -165t-160.5 -110.5t-220 -39.5t-220.5 39.5t-161 110.5t-99 165t-33.5 203zM348 498q0 -61 12.5 -116.5t40 -98.5t71.5 -69t110 -26q63 0 108 26t73 69 t40 98.5t12 116.5t-12 117.5t-40 99.5t-73 68.5t-108 25.5q-66 0 -110 -25.5t-71.5 -68.5t-40 -99.5t-12.5 -117.5z" />
<glyph unicode="p" horiz-adv-x="1169" d="M133 -422v1419h268v-127q49 68 123 108t181 40q90 0 163.5 -37t126 -103.5t81 -159.5t28.5 -208q0 -129 -41 -228.5t-110.5 -167t-163 -101t-199.5 -33.5q-55 0 -98 7t-78 17v-426h-281zM414 213q27 -10 61.5 -15t73.5 -5q143 0 208.5 88t65.5 227q0 125 -52 208t-161 83 q-68 0 -118 -29t-78 -63v-494z" />
<glyph unicode="q" horiz-adv-x="1171" d="M68 485q0 252 147 392.5t412 140.5q111 0 213 -21.5t198 -70.5v-1348h-280v502q-43 -43 -110.5 -71.5t-153.5 -28.5q-98 0 -177 36.5t-134.5 104t-85 161t-29.5 203.5zM348 487q0 -133 53 -212.5t170 -79.5q115 0 187 67v520q-57 23 -133 23q-135 0 -206 -82t-71 -236z " />
<glyph unicode="r" horiz-adv-x="776" d="M133 0v997h270v-176q29 88 91.5 137.5t167.5 49.5q47 0 83 -11v-239h-47q-104 0 -173.5 -33t-110.5 -94v-631h-281z" />
<glyph unicode="s" horiz-adv-x="886" d="M74 43l41 199q66 -27 135 -42.5t141 -15.5q70 0 116 20.5t46 74.5q0 47 -45 68.5t-119 51.5q-59 25 -114.5 50.5t-97.5 61.5t-67.5 84t-25.5 120q0 78 29.5 135t82 94t123 55.5t152.5 18.5q86 0 165 -15.5t152 -54.5l-43 -198q-59 27 -123.5 44t-129.5 17 q-59 0 -95.5 -13.5t-36.5 -56.5q0 -41 43 -61.5t103 -46.5q43 -18 99.5 -42t105.5 -60.5t83.5 -89t34.5 -130.5q0 -80 -32.5 -142.5t-90 -104t-135 -63t-170.5 -21.5q-78 0 -169 17t-158 46z" />
<glyph unicode="t" horiz-adv-x="821" d="M31 778v219h162v258h280v-258h299v-219h-299v-428q0 -70 25.5 -110.5t101.5 -40.5q80 0 152 22l20 -198q-45 -18 -112.5 -30.5t-135.5 -12.5q-90 0 -152.5 27.5t-102.5 76.5t-58 114.5t-18 143.5v436h-162z" />
<glyph unicode="u" horiz-adv-x="1161" d="M115 479v518h280v-520q0 -135 38 -204.5t134 -69.5q61 0 106.5 28.5t74.5 67.5v698h280v-997h-270v135q-53 -80 -127 -117.5t-164 -37.5q-96 0 -163.5 40.5t-109.5 109.5t-60.5 160t-18.5 189z" />
<glyph unicode="v" horiz-adv-x="1021" d="M12 997h283l217 -735l215 735h283l-351 -997h-297z" />
<glyph unicode="w" horiz-adv-x="1601" d="M14 997h269l161 -657l220 657h274l219 -657l162 657h268l-287 -997h-262l-237 702l-238 -702h-262z" />
<glyph unicode="x" horiz-adv-x="1048" d="M16 0l361 504l-350 493h290l207 -303l207 303h291l-350 -493l360 -504h-293l-215 315l-215 -315h-293z" />
<glyph unicode="y" horiz-adv-x="1009" d="M10 997h291l211 -741l203 741h284l-477 -1419h-280l135 391z" />
<glyph unicode="z" horiz-adv-x="964" d="M100 0v203l461 590h-438v204h749v-204l-460 -588h477v-205h-789z" />
<glyph unicode="{" horiz-adv-x="897" d="M82 477v193q123 0 166 46t43 154v201q0 106 22.5 187t72.5 136.5t133 84t204 28.5h82v-213h-68q-86 0 -126 -46t-40 -152v-164q0 -143 -50 -229.5t-175 -129.5q125 -43 175 -129t50 -229v-164q0 -106 40 -152t126 -46h68v-213h-82q-121 0 -204 28.5t-133 83.5t-72.5 136 t-22.5 188v200q0 109 -43 155t-166 46z" />
<glyph unicode="|" horiz-adv-x="641" d="M205 -512v2048h231v-2048h-231z" />
<glyph unicode="}" horiz-adv-x="897" d="M92 -147h68q86 0 126 46t40 152v164q0 143 50 229t175 129q-125 43 -175 129t-50 230v164q0 106 -40 152t-126 46h-68v213h82q121 0 204 -28.5t133 -84t72.5 -136t22.5 -187.5v-201q0 -109 43 -154.5t166 -45.5v-193q-123 0 -166 -46t-43 -155v-200q0 -106 -22.5 -187.5 t-72.5 -136.5t-133 -83.5t-204 -28.5h-82v213z" />
<glyph unicode="~" horiz-adv-x="1224" d="M102 567q25 88 53.5 149.5t65.5 99.5t85 54.5t114 16.5q59 0 109.5 -21.5t109.5 -52.5q47 -25 88 -47.5t82 -22.5q53 0 78.5 43t48.5 103l197 -86q-25 -72 -52.5 -130.5t-61.5 -99.5t-77 -62.5t-102 -21.5t-123 27t-113 51q-49 25 -90 45.5t-76 20.5q-53 0 -79.5 -39 t-53.5 -107z" />
<glyph unicode="&#xa1;" horiz-adv-x="671" d="M174 854q0 66 42 115t120 49t120 -49t42 -115t-42 -114t-120 -48t-120 48t-42 114zM188 61l66 510h164l65 -510v-423h-295v423z" />
<glyph unicode="&#xa2;" horiz-adv-x="1040" d="M113 682q0 186 95 312t269 167v256h246v-243q53 -6 108.5 -19.5t96.5 -36.5l-39 -200q-106 41 -227 40q-127 0 -198 -70.5t-71 -205.5t71 -205.5t198 -70.5q121 0 227 40l39 -200q-41 -23 -96.5 -36t-108.5 -20v-243h-246v256q-174 41 -269 167t-95 312z" />
<glyph unicode="&#xa3;" horiz-adv-x="1128" d="M102 195q76 78 122 152.5t69 170.5h-189v221h211v170q0 236 113 358t326 122q178 0 293 -58l-37 -207q-100 41 -209 41q-111 0 -158 -63.5t-47 -196.5v-166h317v-221h-342q-16 -88 -64 -166t-112 -129h592v-223h-831z" />
<glyph unicode="&#xa4;" horiz-adv-x="1320" d="M123 270l166 166q-80 109 -80 246q0 139 80 244l-166 168l170 159l180 -182q86 37 189 37q104 0 184 -37l184 182l168 -159l-166 -168q80 -104 80 -244q0 -137 -80 -246l166 -166l-168 -159l-184 180q-41 -18 -87 -26.5t-97 -8.5q-106 0 -189 35l-180 -180zM444 682 q0 -104 58.5 -172t159.5 -68q98 0 157.5 68t59.5 172t-59.5 172t-157.5 68q-100 0 -159 -68t-59 -172z" />
<glyph unicode="&#xa5;" horiz-adv-x="1175" d="M82 1364h293l213 -598l213 598h293l-228 -535h166v-196h-250l-53 -123v-45h303v-195h-303v-270h-280v270h-306v195h306v45l-56 123h-250v196h168z" />
<glyph unicode="&#xa6;" horiz-adv-x="641" d="M205 293h231v-805h-231v805zM205 731v805h231v-805h-231z" />
<glyph unicode="&#xa7;" horiz-adv-x="1271" d="M113 940q0 125 49 222.5t135 165t200.5 103t247.5 35.5q70 0 143 -8t134 -33l-25 -157q-43 16 -99 24t-110 8q-84 0 -138 -40.5t-54 -129.5q0 -41 13.5 -74.5t41 -67.5t68.5 -70.5t96 -83.5q63 -55 129 -116t118 -131.5t85 -151.5t33 -177q0 -129 -55.5 -231.5 t-147.5 -175t-212 -111.5t-247 -39q-74 0 -150.5 13.5t-129.5 33.5l28 158q45 -16 108.5 -27.5t135.5 -11.5q98 0 150.5 46t52.5 124q0 39 -15.5 73.5t-43 68.5t-65.5 69t-83 74q-100 88 -174 161.5t-123 145t-72.5 146.5t-23.5 165zM319 961q0 -121 69 -216.5t175 -193.5 q51 -47 109.5 -98.5t107.5 -109.5t82 -124.5t33 -144.5q0 -33 -8 -69t-21 -60q47 47 83 116.5t36 151.5q0 70 -23.5 129t-62.5 112.5t-89 101.5t-101 95q-74 63 -129.5 116.5t-93 105t-57 105.5t-19.5 122q0 45 14.5 81t30.5 54q-59 -41 -97.5 -104.5t-38.5 -169.5z" />
<glyph unicode="&#xa8;" horiz-adv-x="1105" d="M215 1294q0 55 38 97.5t101 42.5t101.5 -42t38.5 -98q0 -59 -38 -99t-102 -40q-63 0 -101 40t-38 99zM612 1294q0 55 38 97.5t102 42.5q63 0 101 -42t38 -98q0 -59 -38 -99t-101 -40t-101.5 40t-38.5 99z" />
<glyph unicode="&#xa9;" horiz-adv-x="1675" d="M123 682q0 145 52 274t146.5 225.5t225.5 152t291 55.5q158 0 290 -55.5t226 -152t146 -225.5t52 -274t-52 -274t-146 -225.5t-226.5 -152t-289.5 -55.5q-160 0 -291 55.5t-225.5 152t-146.5 225.5t-52 274zM219 682q0 -123 43 -235.5t123 -197.5t194.5 -135.5 t258.5 -50.5q143 0 257.5 50.5t194.5 135.5t123 197.5t43 235.5t-43 235.5t-123 197.5t-194.5 135t-257.5 50t-258 -50t-195 -135t-123 -197.5t-43 -235.5zM473 682q0 86 26.5 158.5t79 127t129.5 85t175 30.5q55 0 114.5 -10t100.5 -31l-23 -143q-76 27 -166 27 q-119 0 -181 -62.5t-62 -181.5t62.5 -181.5t180.5 -62.5q90 0 166 27l23 -143q-41 -20 -100.5 -30.5t-114.5 -10.5q-98 0 -175 30.5t-129.5 85t-79 127t-26.5 158.5z" />
<glyph unicode="&#xaa;" horiz-adv-x="1001" d="M143 334v192h715v-192h-715zM162 846q0 98 62.5 145t166.5 58q49 4 96.5 6t96.5 4v20q0 63 -35 93t-96 30q-57 0 -104.5 -12t-88.5 -35l-41 166q102 63 279 63q160 0 240.5 -83.5t80.5 -235.5v-408h-229v74q-41 -41 -97.5 -65.5t-123.5 -24.5q-94 0 -150.5 53.5 t-56.5 151.5zM389 854q0 -63 74 -63q33 0 63.5 11t57.5 29v105q-53 -4 -113 -12q-41 -6 -61.5 -21.5t-20.5 -48.5z" />
<glyph unicode="&#xab;" horiz-adv-x="1277" d="M82 494l360 436l179 -142l-248 -294l248 -295l-179 -142zM610 494l361 436l178 -142l-248 -294l248 -295l-178 -142z" />
<glyph unicode="&#xac;" horiz-adv-x="1239" d="M133 557v209h963v-606h-242v397h-721z" />
<glyph unicode="&#xad;" horiz-adv-x="786" d="M123 424v227h541v-227h-541z" />
<glyph unicode="&#xae;" horiz-adv-x="1138" d="M102 936q0 90 33 172t94.5 144.5t147.5 99.5t192 37t192.5 -37t148 -99.5t94 -144.5t32.5 -172q0 -92 -32.5 -174t-94 -144.5t-147.5 -99.5t-193 -37q-106 0 -192 37t-147.5 99.5t-94.5 144.5t-33 174zM184 936q0 -80 28 -150.5t78 -123t120.5 -82t158.5 -29.5t159 29.5 t121 82t77.5 123t27.5 150.5t-27.5 149.5t-77.5 122t-121 82t-159 29.5t-158.5 -29.5t-120.5 -82t-78 -122t-28 -149.5zM414 731v436h178q72 0 118 -35t46 -94q0 -94 -94 -129l141 -178h-137l-121 160h-19v-160h-112zM526 969h29q41 0 64.5 15t23.5 44q0 25 -18.5 38 t-49.5 13h-49v-110z" />
<glyph unicode="&#xaf;" horiz-adv-x="1046" d="M215 1182v213h616v-213h-616z" />
<glyph unicode="&#xb0;" horiz-adv-x="817" d="M123 1120q0 57 20.5 106.5t58.5 85.5t90 56.5t116 20.5q63 0 116.5 -20.5t91 -56.5t58 -85t20.5 -107q0 -55 -20.5 -104t-58 -86t-91 -57.5t-116.5 -20.5t-115.5 20.5t-90.5 57.5t-58.5 86t-20.5 104zM287 1120q0 -59 31.5 -95t89.5 -36q59 0 90.5 36t31.5 95t-31.5 96 t-90.5 37q-57 0 -89 -37t-32 -96z" />
<glyph unicode="&#xb1;" horiz-adv-x="1239" d="M137 0v205h965v-205h-965zM137 655v207h363v330h239v-330h363v-207h-363v-321h-239v321h-363z" />
<glyph unicode="&#xb2;" horiz-adv-x="765" d="M51 1004q66 53 128.5 104t103.5 86q25 23 54.5 47.5t54 52t41 57t16.5 62.5q0 100 -121 100q-51 0 -99.5 -15t-85.5 -36l-47 170q119 70 279 70q68 0 125 -18.5t99 -54.5t65.5 -86t23.5 -111q0 -109 -61.5 -185t-155.5 -143q-27 -18 -44 -31.5t-38 -25.5h305v-187h-602z " />
<glyph unicode="&#xb3;" horiz-adv-x="743" d="M68 891l36 164q43 -18 94.5 -28.5t96.5 -10.5q63 0 101 20.5t38 63.5q0 49 -42 68.5t-99 19.5h-135v174h112q143 0 144 90q0 39 -31 56.5t-78 17.5q-51 0 -94 -10.5t-84 -28.5l-37 162q59 29 126 41t138 12q63 0 117.5 -14.5t93.5 -41t61.5 -66.5t22.5 -91 q0 -72 -39 -123t-116 -78q76 -23 127 -70t51 -131q0 -117 -98.5 -182t-254.5 -65q-66 0 -136 14t-115 37z" />
<glyph unicode="&#xb4;" horiz-adv-x="888" d="M215 1143l150 340h309l-228 -340h-231z" />
<glyph unicode="&#xb5;" horiz-adv-x="1247" d="M133 -422v1419h281v-520q0 -135 39 -204.5t131 -69.5q59 0 103 27.5t79 68.5v698h281v-712q0 -53 18 -81t78 -28h33v-164q-35 -12 -72 -19t-84 -7q-104 0 -159.5 45t-78.5 121q-47 -76 -120.5 -124t-172.5 -48q-59 0 -107 21.5t-79 53.5q49 -59 80 -141t31 -174v-162 h-281z" />
<glyph unicode="&#xb6;" horiz-adv-x="1224" d="M102 836q0 121 43 218t118 166.5t175.5 106.5t214.5 37h428v-1651h-213v1471h-213v-873q-117 0 -218 35t-175 102.5t-117 165t-43 222.5z" />
<glyph unicode="&#xb7;" horiz-adv-x="569" d="M123 508q0 66 42 114t120 48t119.5 -48.5t41.5 -113.5q0 -66 -42 -115t-119 -49q-78 0 -120 49t-42 115z" />
<glyph unicode="&#xb8;" horiz-adv-x="800" d="M215 -305q57 6 101 20.5t44 48.5q0 18 -13 30.5t-33.5 21t-45 11.5t-49.5 7l64 166h145l-29 -84q78 -8 132.5 -46t54.5 -110q0 -49 -28 -85.5t-76 -61.5t-112.5 -38t-136.5 -17z" />
<glyph unicode="&#xb9;" horiz-adv-x="632" d="M37 1567l309 114h164v-821h-240v576l-184 -58z" />
<glyph unicode="&#xba;" horiz-adv-x="1040" d="M123 1012q0 76 25.5 144.5t76.5 118.5t125 79.5t170 29.5q94 0 169 -29.5t125 -79.5t77 -118.5t27 -144.5t-27 -143.5t-77 -118t-125 -80t-169 -29.5q-96 0 -170 29.5t-125 80t-76.5 118t-25.5 143.5zM158 334v192h727v-192h-727zM356 1012q0 -88 42 -142.5t122 -54.5 q78 0 121 54.5t43 142.5q0 90 -43 144t-121 54q-80 0 -122 -54t-42 -144z" />
<glyph unicode="&#xbb;" horiz-adv-x="1277" d="M129 199l248 295l-248 294l178 142l361 -436l-361 -437zM657 199l248 295l-248 294l179 142l360 -436l-360 -437z" />
<glyph unicode="&#xbc;" horiz-adv-x="1855" d="M92 1249l309 115h164v-821h-239v575l-185 -57zM455 74l704 1315l180 -99l-704 -1315zM1018 344l385 477h246v-463h125v-168h-125v-190h-222v190h-366zM1223 358h204v260z" />
<glyph unicode="&#xbd;" horiz-adv-x="1937" d="M92 1249l309 115h164v-821h-239v575l-185 -57zM455 74l704 1315l180 -99l-704 -1315zM1171 143q66 53 128.5 104.5t103.5 86.5q25 23 54.5 47.5t54 52t41 57t16.5 62.5q0 100 -121 100q-51 0 -99.5 -15t-84.5 -36l-47 170q119 70 278 70q68 0 125 -18.5t99 -54.5 t65.5 -86t23.5 -112q0 -109 -61 -184.5t-156 -142.5q-27 -18 -44 -31.5t-38 -26.5h306v-186h-603z" />
<glyph unicode="&#xbe;" horiz-adv-x="1916" d="M123 573l37 164q43 -18 94 -28.5t96 -10.5q63 0 101 20.5t38 63.5q0 49 -41.5 68.5t-99.5 19.5h-135v174h113q143 0 143 91q0 39 -30.5 56t-78.5 17q-51 0 -94 -10t-84 -29l-37 162q59 29 126 41t139 12q63 0 117.5 -14t93 -40.5t61.5 -66.5t23 -92q0 -72 -39 -123 t-117 -77q76 -23 127 -70t51 -131q0 -117 -98.5 -182.5t-253.5 -65.5q-66 0 -136.5 14.5t-115.5 36.5zM516 74l705 1315l180 -99l-705 -1315zM1079 344l385 477h246v-463h125v-168h-125v-190h-221v190h-367zM1284 358h205v260z" />
<glyph unicode="&#xbf;" horiz-adv-x="970" d="M92 -23q0 96 42 177.5t112.5 151t163 133t192.5 124.5l131 -188q-72 -53 -136.5 -99.5t-113.5 -92.5t-78.5 -92t-29.5 -99q0 -74 47 -112t125 -38q82 0 144.5 20.5t123.5 55.5l74 -205q-78 -47 -172 -73.5t-209 -26.5q-86 0 -162 22.5t-132 68.5t-89 114.5t-33 158.5z M410 854q0 66 42 115t119 49q78 0 120 -49t42 -115t-42 -114t-120 -48t-119.5 48t-41.5 114z" />
<glyph unicode="&#xc0;" horiz-adv-x="1425" d="M39 0l518 1364h311l518 -1364h-296l-97 287h-561l-96 -287h-297zM334 1733h330l153 -246h-231zM508 514h410l-205 621z" />
<glyph unicode="&#xc1;" horiz-adv-x="1425" d="M39 0l518 1364h311l518 -1364h-296l-97 287h-561l-96 -287h-297zM508 514h410l-205 621zM598 1487l154 246h329l-252 -246h-231z" />
<glyph unicode="&#xc2;" horiz-adv-x="1425" d="M39 0l518 1364h311l518 -1364h-296l-97 287h-561l-96 -287h-297zM383 1487l190 246h279l190 -246h-239l-90 119l-90 -119h-240zM508 514h410l-205 621z" />
<glyph unicode="&#xc3;" horiz-adv-x="1425" d="M39 0l518 1364h311l518 -1364h-296l-97 287h-561l-96 -287h-297zM317 1544q29 111 79 166t157 55q49 0 94 -12t88 -29q41 -16 74 -28.5t57 -12.5q35 0 52.5 25t35.5 59l160 -75q-37 -94 -83 -149.5t-138 -55.5q-45 0 -90 11t-94 30q-41 16 -75 27.5t-63 11.5 q-35 0 -52 -22.5t-30 -61.5zM508 514h410l-205 621z" />
<glyph unicode="&#xc4;" horiz-adv-x="1425" d="M39 0l518 1364h311l518 -1364h-296l-97 287h-561l-96 -287h-297zM358 1618q0 55 38 93t102 38q61 0 99 -38t38 -93q0 -59 -38 -96t-99 -37q-63 0 -101.5 37t-38.5 96zM508 514h410l-205 621zM788 1618q0 55 38 93t102 38q61 0 99 -38t38 -93q0 -59 -38 -96t-99 -37 q-63 0 -101.5 37t-38.5 96z" />
<glyph unicode="&#xc5;" horiz-adv-x="1425" d="M39 0l516 1360q-45 55 -45 121q0 35 13.5 68.5t39 59t63.5 42t87 16.5t88 -16.5t64.5 -42t39 -59t13.5 -68.5q0 -68 -48 -121l516 -1360h-296l-97 287h-561l-96 -287h-297zM508 514h410l-205 621zM633 1481q0 -35 19.5 -60.5t60.5 -25.5t61.5 25.5t20.5 60.5t-20.5 59.5 t-61.5 24.5t-60.5 -24.5t-19.5 -59.5z" />
<glyph unicode="&#xc6;" horiz-adv-x="1837" d="M-10 0l790 1364h944v-227h-610l41 -330h537v-227h-508l47 -353h500v-227h-734l-36 287h-517l-157 -287h-297zM575 514h357l-64 576z" />
<glyph unicode="&#xc7;" horiz-adv-x="1271" d="M78 682q0 154 47 283t139 223t227.5 147.5t311.5 53.5q51 0 104.5 -5.5t103.5 -14.5t96 -22.5t83 -31.5l-41 -211q-66 25 -145.5 40t-157.5 15q-233 0 -357 -120.5t-124 -356.5t123.5 -356.5t357.5 -120.5q78 0 157.5 15.5t145.5 39.5l41 -211q-70 -35 -169 -53.5 t-198 -20.5l-20 -59q78 -8 132 -46t54 -110q0 -49 -27.5 -85.5t-75.5 -61.5t-112.5 -38t-136.5 -17l-19 137q57 6 101.5 20.5t44.5 48.5q0 18 -13.5 30.5t-34 21t-45 11.5t-48.5 7l57 150q-147 18 -260 76.5t-188.5 150.5t-114.5 212t-39 259z" />
<glyph unicode="&#xc8;" d="M143 0v1364h820v-227h-533v-330h508v-227h-508v-353h539v-227h-826zM236 1733h329l154 -246h-232z" />
<glyph unicode="&#xc9;" d="M143 0v1364h820v-227h-533v-330h508v-227h-508v-353h539v-227h-826zM385 1487l154 246h329l-252 -246h-231z" />
<glyph unicode="&#xca;" d="M143 0v1364h820v-227h-533v-330h508v-227h-508v-353h539v-227h-826zM225 1487l191 246h278l191 -246h-240l-90 119l-90 -119h-240z" />
<glyph unicode="&#xcb;" d="M143 0v1364h820v-227h-533v-330h508v-227h-508v-353h539v-227h-826zM201 1618q0 55 37.5 93t101.5 38q61 0 99 -38t38 -93q0 -59 -38 -96t-99 -37q-63 0 -101 37t-38 96zM631 1618q0 55 38 93t101 38q61 0 99 -38t38 -93q0 -59 -38 -96t-99 -37q-63 0 -101 37t-38 96z " />
<glyph unicode="&#xcc;" horiz-adv-x="593" d="M-66 1733h330l154 -246h-232zM154 0v1364h286v-1364h-286z" />
<glyph unicode="&#xcd;" horiz-adv-x="593" d="M154 0v1364h286v-1364h-286zM178 1487l154 246h330l-252 -246h-232z" />
<glyph unicode="&#xce;" horiz-adv-x="593" d="M-33 1487l191 246h278l191 -246h-240l-90 119l-90 -119h-240zM154 0v1364h286v-1364h-286z" />
<glyph unicode="&#xcf;" horiz-adv-x="593" d="M-55 1618q0 55 37.5 93t101.5 38q61 0 99 -38t38 -93q0 -59 -38 -96t-99 -37q-63 0 -101 37t-38 96zM154 0v1364h286v-1364h-286zM375 1618q0 55 38 93t101 38q61 0 99 -38t38 -93q0 -59 -38 -96t-99 -37q-63 0 -101 37t-38 96z" />
<glyph unicode="&#xd0;" horiz-adv-x="1497" d="M72 569v226h155v569h412q180 0 326.5 -51t250 -142.5t160 -216.5t56.5 -272t-56.5 -272t-160 -216.5t-250 -142.5t-326.5 -51h-412v569h-155zM514 229h131q109 0 201 31t158.5 89.5t103.5 142t37 190.5q0 106 -37 190t-103.5 142.5t-158.5 89.5t-201 31h-131v-340h338 v-226h-338v-340z" />
<glyph unicode="&#xd1;" horiz-adv-x="1472" d="M143 0v1364h275l637 -893v893h274v-1364h-274l-637 893v-893h-275zM340 1544q29 111 79 166t156 55q49 0 94.5 -12t88.5 -29q41 -16 73.5 -28.5t57.5 -12.5q35 0 52 25t36 59l160 -75q-37 -94 -83.5 -149.5t-138.5 -55.5q-45 0 -90 11t-94 30q-41 16 -74.5 27.5 t-62.5 11.5q-35 0 -52.5 -22.5t-29.5 -61.5z" />
<glyph unicode="&#xd2;" horiz-adv-x="1527" d="M78 682q0 143 45 272t133 225.5t216 153t292 56.5t292 -56.5t215 -153t133 -225.5t46 -272q0 -145 -46 -273t-133 -224.5t-215 -153t-292 -56.5t-292 56.5t-216 153t-133 224.5t-45 273zM365 682q0 -102 24.5 -190.5t74.5 -153t125 -101t175 -36.5t175 36.5t125 101 t74.5 153t24.5 190.5t-24.5 190.5t-74.5 153t-125 101t-175 36.5t-175 -36.5t-125 -101t-74.5 -153t-24.5 -190.5zM408 1733h329l154 -246h-232z" />
<glyph unicode="&#xd3;" horiz-adv-x="1527" d="M78 682q0 143 45 272t133 225.5t216 153t292 56.5t292 -56.5t215 -153t133 -225.5t46 -272q0 -145 -46 -273t-133 -224.5t-215 -153t-292 -56.5t-292 56.5t-216 153t-133 224.5t-45 273zM365 682q0 -102 24.5 -190.5t74.5 -153t125 -101t175 -36.5t175 36.5t125 101 t74.5 153t24.5 190.5t-24.5 190.5t-74.5 153t-125 101t-175 36.5t-175 -36.5t-125 -101t-74.5 -153t-24.5 -190.5zM635 1487l153 246h330l-252 -246h-231z" />
<glyph unicode="&#xd4;" horiz-adv-x="1527" d="M78 682q0 143 45 272t133 225.5t216 153t292 56.5t292 -56.5t215 -153t133 -225.5t46 -272q0 -145 -46 -273t-133 -224.5t-215 -153t-292 -56.5t-292 56.5t-216 153t-133 224.5t-45 273zM365 682q0 -102 24.5 -190.5t74.5 -153t125 -101t175 -36.5t175 36.5t125 101 t74.5 153t24.5 190.5t-24.5 190.5t-74.5 153t-125 101t-175 36.5t-175 -36.5t-125 -101t-74.5 -153t-24.5 -190.5zM434 1487l191 246h278l191 -246h-240l-90 119l-90 -119h-240z" />
<glyph unicode="&#xd5;" horiz-adv-x="1527" d="M78 682q0 143 45 272t133 225.5t216 153t292 56.5t292 -56.5t215 -153t133 -225.5t46 -272q0 -145 -46 -273t-133 -224.5t-215 -153t-292 -56.5t-292 56.5t-216 153t-133 224.5t-45 273zM365 682q0 -102 24.5 -190.5t74.5 -153t125 -101t175 -36.5t175 36.5t125 101 t74.5 153t24.5 190.5t-24.5 190.5t-74.5 153t-125 101t-175 36.5t-175 -36.5t-125 -101t-74.5 -153t-24.5 -190.5zM377 1544q29 111 79 166t156 55q49 0 94.5 -12t88.5 -29q41 -16 73.5 -28.5t57.5 -12.5q35 0 52 25t36 59l160 -75q-37 -94 -83.5 -149.5t-138.5 -55.5 q-45 0 -90 11t-94 30q-41 16 -75 27.5t-62 11.5q-35 0 -52.5 -22.5t-29.5 -61.5z" />
<glyph unicode="&#xd6;" horiz-adv-x="1527" d="M78 682q0 143 45 272t133 225.5t216 153t292 56.5t292 -56.5t215 -153t133 -225.5t46 -272q0 -145 -46 -273t-133 -224.5t-215 -153t-292 -56.5t-292 56.5t-216 153t-133 224.5t-45 273zM365 682q0 -102 24.5 -190.5t74.5 -153t125 -101t175 -36.5t175 36.5t125 101 t74.5 153t24.5 190.5t-24.5 190.5t-74.5 153t-125 101t-175 36.5t-175 -36.5t-125 -101t-74.5 -153t-24.5 -190.5zM410 1618q0 55 37.5 93t101.5 38q61 0 99 -38t38 -93q0 -59 -38 -96t-99 -37q-63 0 -101 37t-38 96zM840 1618q0 55 37.5 93t101.5 38q61 0 99 -38t38 -93 q0 -59 -38 -96t-99 -37q-63 0 -101 37t-38 96z" />
<glyph unicode="&#xd7;" horiz-adv-x="1234" d="M143 344l318 318l-318 317l156 158l319 -320l318 320l156 -158l-318 -317l318 -318l-156 -158l-318 320l-319 -320z" />
<glyph unicode="&#xd8;" horiz-adv-x="1540" d="M84 -25l174 213q-86 98 -130 224.5t-44 269.5t45 272t133 225.5t216 153t292 56.5q115 0 211 -29t174 -78l174 213l127 -106l-176 -215q86 -96 131 -222.5t45 -269.5q0 -145 -46 -273t-133 -224.5t-215 -153t-292 -56.5q-115 0 -211 28t-174 77l-172 -211zM371 682 q0 -80 14 -151.5t45 -131.5l569 695q-45 35 -102 53t-127 18q-100 0 -175 -36.5t-125 -101t-74.5 -154t-24.5 -191.5zM539 268q94 -69 231 -69q100 0 175 36.5t125 101t74.5 154t24.5 191.5q0 162 -61 283z" />
<glyph unicode="&#xd9;" horiz-adv-x="1404" d="M139 492v872h287v-885q0 -129 69.5 -201.5t206.5 -72.5t207 72.5t70 201.5v885h287v-872q0 -117 -39 -212.5t-111 -163t-177 -104.5t-237 -37q-133 0 -237.5 37t-176 104.5t-110.5 163t-39 212.5zM387 1733h330l153 -246h-231z" />
<glyph unicode="&#xda;" horiz-adv-x="1404" d="M139 492v872h287v-885q0 -129 69.5 -201.5t206.5 -72.5t207 72.5t70 201.5v885h287v-872q0 -117 -39 -212.5t-111 -163t-177 -104.5t-237 -37q-133 0 -237.5 37t-176 104.5t-110.5 163t-39 212.5zM547 1487l153 246h330l-252 -246h-231z" />
<glyph unicode="&#xdb;" horiz-adv-x="1404" d="M139 492v872h287v-885q0 -129 69.5 -201.5t206.5 -72.5t207 72.5t70 201.5v885h287v-872q0 -117 -39 -212.5t-111 -163t-177 -104.5t-237 -37q-133 0 -237.5 37t-176 104.5t-110.5 163t-39 212.5zM373 1487l190 246h279l190 -246h-239l-91 119l-90 -119h-239z" />
<glyph unicode="&#xdc;" horiz-adv-x="1404" d="M139 492v872h287v-885q0 -129 69.5 -201.5t206.5 -72.5t207 72.5t70 201.5v885h287v-872q0 -117 -39 -212.5t-111 -163t-177 -104.5t-237 -37q-133 0 -237.5 37t-176 104.5t-110.5 163t-39 212.5zM348 1618q0 55 38 93t101 38q61 0 99.5 -38t38.5 -93q0 -59 -38 -96 t-100 -37q-63 0 -101 37t-38 96zM778 1618q0 55 38 93t102 38q61 0 99 -38t38 -93q0 -59 -38 -96t-99 -37q-63 0 -101.5 37t-38.5 96z" />
<glyph unicode="&#xdd;" horiz-adv-x="1187" d="M0 1364h313l281 -600l280 600h314l-451 -854v-510h-286v510zM463 1487l153 246h330l-252 -246h-231z" />
<glyph unicode="&#xde;" horiz-adv-x="1138" d="M143 0v1364h287v-240h86q123 0 228.5 -25.5t183.5 -78.5t122 -134t44 -192q0 -113 -47.5 -196.5t-129 -140t-193.5 -84t-239 -27.5h-55v-246h-287zM430 469h70q143 0 225 55t82 170q0 106 -79 156.5t-214 50.5h-84v-432z" />
<glyph unicode="&#xdf;" horiz-adv-x="1273" d="M133 0v973q0 125 38 217t105.5 153.5t160.5 92t204 30.5q92 0 169 -23.5t132 -66.5t86 -103.5t31 -133.5q0 -86 -36 -142.5t-73 -103.5t-68.5 -83t-31.5 -77t37 -64.5t94 -58.5q41 -25 84 -52.5t78 -63t57.5 -84t22.5 -113.5q0 -70 -28 -128t-78 -100t-120.5 -65.5 t-156.5 -23.5q-76 0 -150 13t-117 30l37 196q41 -16 93.5 -25.5t105.5 -9.5q66 0 102.5 27t36.5 72q0 27 -11 45t-32.5 34.5t-51.5 33t-65 34.5q-117 63 -168 128t-51 161q0 72 33 126t80 107q35 41 66.5 82t31.5 88q0 59 -44 92t-111 33q-211 0 -211 -276v-971h-281z" />
<glyph unicode="&#xe0;" d="M82 262q0 137 92 209t252 82q61 4 126.5 6t119.5 4v35q0 96 -47 146.5t-148 50.5q-78 0 -147.5 -18.5t-122.5 -47.5l-55 197q78 45 172 68.5t202 23.5q199 0 312.5 -108.5t113.5 -321.5v-588h-270v106q-55 -53 -133 -89.5t-180 -36.5q-66 0 -119 21.5t-90 59t-57.5 89 t-20.5 112.5zM209 1483h309l150 -340h-232zM354 268q0 -49 32 -73.5t85 -24.5q59 0 110.5 20.5t90.5 51.5v157q-43 -4 -92.5 -8t-90.5 -10q-61 -10 -98 -33.5t-37 -79.5z" />
<glyph unicode="&#xe1;" d="M82 262q0 137 92 209t252 82q61 4 126.5 6t119.5 4v35q0 96 -47 146.5t-148 50.5q-78 0 -147.5 -18.5t-122.5 -47.5l-55 197q78 45 172 68.5t202 23.5q199 0 312.5 -108.5t113.5 -321.5v-588h-270v106q-55 -53 -133 -89.5t-180 -36.5q-66 0 -119 21.5t-90 59t-57.5 89 t-20.5 112.5zM354 268q0 -49 32 -73.5t85 -24.5q59 0 110.5 20.5t90.5 51.5v157q-43 -4 -92.5 -8t-90.5 -10q-61 -10 -98 -33.5t-37 -79.5zM389 1143l150 340h309l-227 -340h-232z" />
<glyph unicode="&#xe2;" d="M82 262q0 137 92 209t252 82q61 4 126.5 6t119.5 4v35q0 96 -47 146.5t-148 50.5q-78 0 -147.5 -18.5t-122.5 -47.5l-55 197q78 45 172 68.5t202 23.5q199 0 312.5 -108.5t113.5 -321.5v-588h-270v106q-55 -53 -133 -89.5t-180 -36.5q-66 0 -119 21.5t-90 59t-57.5 89 t-20.5 112.5zM199 1143l221 340h254l221 -340h-236l-112 190l-113 -190h-235zM354 268q0 -49 32 -73.5t85 -24.5q59 0 110.5 20.5t90.5 51.5v157q-43 -4 -92.5 -8t-90.5 -10q-61 -10 -98 -33.5t-37 -79.5z" />
<glyph unicode="&#xe3;" d="M82 262q0 137 92 209t252 82q61 4 126.5 6t119.5 4v35q0 96 -47 146.5t-148 50.5q-78 0 -147.5 -18.5t-122.5 -47.5l-55 197q78 45 172 68.5t202 23.5q199 0 312.5 -108.5t113.5 -321.5v-588h-270v106q-55 -53 -133 -89.5t-180 -36.5q-66 0 -119 21.5t-90 59t-57.5 89 t-20.5 112.5zM166 1227q39 121 92 174t154 53q47 0 82.5 -15.5t76.5 -33.5q37 -16 66 -29.5t51 -13.5q37 0 55.5 24.5t40.5 67.5l156 -78q-29 -61 -53.5 -103t-51 -67.5t-57 -37t-73.5 -11.5t-86.5 17.5t-83.5 33.5q-35 16 -64 28.5t-53 12.5q-37 0 -54.5 -25.5t-39.5 -70.5 zM354 268q0 -49 32 -73.5t85 -24.5q59 0 110.5 20.5t90.5 51.5v157q-43 -4 -92.5 -8t-90.5 -10q-61 -10 -98 -33.5t-37 -79.5z" />
<glyph unicode="&#xe4;" d="M82 262q0 137 92 209t252 82q61 4 126.5 6t119.5 4v35q0 96 -47 146.5t-148 50.5q-78 0 -147.5 -18.5t-122.5 -47.5l-55 197q78 45 172 68.5t202 23.5q199 0 312.5 -108.5t113.5 -321.5v-588h-270v106q-55 -53 -133 -89.5t-180 -36.5q-66 0 -119 21.5t-90 59t-57.5 89 t-20.5 112.5zM215 1294q0 55 38 97.5t101 42.5t101.5 -42t38.5 -98q0 -59 -38 -99t-102 -40q-63 0 -101 40t-38 99zM354 268q0 -49 32 -73.5t85 -24.5q59 0 110.5 20.5t90.5 51.5v157q-43 -4 -92.5 -8t-90.5 -10q-61 -10 -98 -33.5t-37 -79.5zM612 1294q0 55 38 97.5 t102 42.5q63 0 101 -42t38 -98q0 -59 -38 -99t-101 -40t-101.5 40t-38.5 99z" />
<glyph unicode="&#xe5;" d="M82 262q0 137 92 209t252 82q61 4 126.5 6t119.5 4v35q0 96 -47 146.5t-148 50.5q-78 0 -147.5 -18.5t-122.5 -47.5l-55 197q78 45 172 68.5t202 23.5q199 0 312.5 -108.5t113.5 -321.5v-588h-270v106q-55 -53 -133 -89.5t-180 -36.5q-66 0 -119 21.5t-90 59t-57.5 89 t-20.5 112.5zM332 1321q0 35 13 68.5t39 59.5t63.5 42t87.5 16q49 0 88 -16t64.5 -42t38.5 -59.5t13 -68.5t-13 -67.5t-38.5 -59.5t-64.5 -42t-88 -15t-87 15t-64 42t-39 59.5t-13 67.5zM354 268q0 -49 32 -73.5t85 -24.5q59 0 110.5 20.5t90.5 51.5v157q-43 -4 -92.5 -8 t-90.5 -10q-61 -10 -98 -33.5t-37 -79.5zM455 1321q0 -35 20.5 -58.5t59.5 -23.5t60 23.5t21 58.5t-21.5 59.5t-59.5 24.5q-39 0 -59.5 -24.5t-20.5 -59.5z" />
<glyph unicode="&#xe6;" horiz-adv-x="1650" d="M82 262q0 141 88 211t248 84q68 6 134 10t126 8v27q0 92 -47 145.5t-152 53.5q-84 0 -152.5 -18.5t-133.5 -49.5l-54 197q66 39 157 63.5t208 24.5q104 0 186 -33t144 -111q118 144 337 144q100 0 177 -32t128.5 -89t77 -136t25.5 -173q0 -39 -6 -83t-14 -77h-592 q2 -111 68.5 -176.5t201.5 -65.5q76 0 147.5 13.5t143.5 46.5l35 -191q-78 -41 -167 -58t-194 -17q-129 0 -228.5 38.5t-164.5 110.5q-86 -70 -186.5 -109.5t-223.5 -39.5q-78 0 -136 21.5t-99 59t-61.5 90t-20.5 111.5zM350 270q0 -49 33 -74.5t88 -25.5q68 0 133.5 22.5 t118.5 61.5q-31 72 -39 147q-47 -4 -102.5 -10t-102.5 -12q-59 -10 -94 -32.5t-35 -76.5zM969 616h342q14 92 -25 152.5t-131 60.5q-80 0 -131 -58t-55 -155z" />
<glyph unicode="&#xe7;" horiz-adv-x="933" d="M63 500q0 111 34 206t100.5 163.5t165 108.5t227.5 40q74 0 152.5 -15.5t131.5 -44.5l-30 -200q-96 43 -213 43q-147 0 -217 -81t-70 -220t69.5 -221t217.5 -82q117 0 213 43l30 -201q-47 -25 -114.5 -39t-134.5 -18l-21 -66q78 -8 132.5 -46t54.5 -110q0 -49 -28 -85.5 t-76 -61.5t-112.5 -38t-136.5 -17l-18 137q57 6 101 20.5t44 48.5q0 18 -13 30.5t-33.5 21t-45 11.5t-49.5 7l57 154q-102 16 -180 61t-131 112.5t-80 153.5t-27 185z" />
<glyph unicode="&#xe8;" horiz-adv-x="1038" d="M68 494q0 117 33.5 214t97 165.5t154.5 106.5t206 38q98 0 175 -31t128 -87t78 -135t27 -177q0 -41 -5.5 -83t-15.5 -77h-592q4 -111 67.5 -176.5t203.5 -65.5q80 0 155.5 15.5t134.5 44.5l35 -191q-74 -37 -168 -56t-194 -19q-125 0 -221.5 36.5t-163 104t-101 163 t-34.5 210.5zM201 1483h309l149 -340h-231zM356 616h342q10 96 -28.5 154.5t-126.5 58.5q-86 0 -132 -60t-55 -153z" />
<glyph unicode="&#xe9;" horiz-adv-x="1038" d="M68 494q0 117 33.5 214t97 165.5t154.5 106.5t206 38q98 0 175 -31t128 -87t78 -135t27 -177q0 -41 -5.5 -83t-15.5 -77h-592q4 -111 67.5 -176.5t203.5 -65.5q80 0 155.5 15.5t134.5 44.5l35 -191q-74 -37 -168 -56t-194 -19q-125 0 -221.5 36.5t-163 104t-101 163 t-34.5 210.5zM356 616h342q10 96 -28.5 154.5t-126.5 58.5q-86 0 -132 -60t-55 -153zM406 1143l149 340h309l-227 -340h-231z" />
<glyph unicode="&#xea;" horiz-adv-x="1038" d="M68 494q0 117 33.5 214t97 165.5t154.5 106.5t206 38q98 0 175 -31t128 -87t78 -135t27 -177q0 -41 -5.5 -83t-15.5 -77h-592q4 -111 67.5 -176.5t203.5 -65.5q80 0 155.5 15.5t134.5 44.5l35 -191q-74 -37 -168 -56t-194 -19q-125 0 -221.5 36.5t-163 104t-101 163 t-34.5 210.5zM190 1143l222 340h254l221 -340h-236l-112 190l-113 -190h-236zM356 616h342q10 96 -28.5 154.5t-126.5 58.5q-86 0 -132 -60t-55 -153z" />
<glyph unicode="&#xeb;" horiz-adv-x="1038" d="M68 494q0 117 33.5 214t97 165.5t154.5 106.5t206 38q98 0 175 -31t128 -87t78 -135t27 -177q0 -41 -5.5 -83t-15.5 -77h-592q4 -111 67.5 -176.5t203.5 -65.5q80 0 155.5 15.5t134.5 44.5l35 -191q-74 -37 -168 -56t-194 -19q-125 0 -221.5 36.5t-163 104t-101 163 t-34.5 210.5zM205 1294q0 55 38 97.5t101 42.5t101 -42t38 -98q0 -59 -37.5 -99t-101.5 -40q-63 0 -101 40t-38 99zM356 616h342q10 96 -28.5 154.5t-126.5 58.5q-86 0 -132 -60t-55 -153zM602 1294q0 55 38 97.5t101 42.5t101.5 -42t38.5 -98q0 -59 -38 -99t-102 -40 q-63 0 -101 40t-38 99z" />
<glyph unicode="&#xec;" horiz-adv-x="546" d="M-70 1483h310l149 -340h-231zM133 0v997h281v-997h-281z" />
<glyph unicode="&#xed;" horiz-adv-x="546" d="M133 0v997h281v-997h-281zM170 1143l149 340h310l-228 -340h-231z" />
<glyph unicode="&#xee;" horiz-adv-x="546" d="M-74 1143l221 340h254l222 -340h-236l-113 190l-112 -190h-236zM133 0v997h281v-997h-281z" />
<glyph unicode="&#xef;" horiz-adv-x="546" d="M-63 1294q0 55 37.5 97.5t101.5 42.5q63 0 101 -42t38 -98q0 -59 -38 -99t-101 -40t-101 40t-38 99zM133 0v997h281v-997h-281zM334 1294q0 55 38 97.5t101 42.5t101 -42t38 -98q0 -59 -37.5 -99t-101.5 -40q-63 0 -101 40t-38 99z" />
<glyph unicode="&#xf0;" horiz-adv-x="1148" d="M68 469q0 119 35.5 207t97 147.5t143.5 89t172 29.5q84 0 154.5 -16.5t126.5 -53.5q-33 90 -90.5 150.5t-135.5 107.5l-155 -126l-84 94l114 94q-113 41 -251 59l51 215q104 -12 205.5 -37.5t195.5 -70.5l154 127l80 -96l-119 -99q152 -102 238.5 -269t86.5 -394 q0 -133 -32.5 -251t-99 -206t-165 -139t-229.5 -51q-119 0 -211 38.5t-154.5 105t-95 156t-32.5 189.5zM344 463q0 -59 12.5 -108.5t39 -85.5t68.5 -56t101 -20q72 0 119 32.5t74.5 83.5t38 113.5t10.5 122.5v129q-39 23 -91 42t-118 19q-127 0 -190.5 -69.5t-63.5 -202.5z " />
<glyph unicode="&#xf1;" horiz-adv-x="1177" d="M133 0v997h270v-135q49 80 125 118t166 38q96 0 165 -41t112 -109.5t63.5 -160t20.5 -189.5v-518h-281v520q0 135 -42 205t-138 70q-61 0 -106.5 -29t-73.5 -68v-698h-281zM215 1227q39 121 92 174t154 53q47 0 83 -15.5t77 -33.5q37 -16 65.5 -29.5t50.5 -13.5 q37 0 55.5 24.5t41.5 67.5l155 -78q-29 -61 -53.5 -103t-51 -67.5t-57 -37t-73.5 -11.5t-86 17.5t-84 33.5q-35 16 -63.5 28.5t-53.5 12.5q-37 0 -54.5 -25.5t-39.5 -70.5z" />
<glyph unicode="&#xf2;" horiz-adv-x="1163" d="M68 498q0 109 33.5 203t99 164.5t161 111.5t220.5 41t220 -41t160.5 -111.5t99.5 -164.5t34 -203t-34 -203t-99.5 -165t-160.5 -110.5t-220 -39.5t-220.5 39.5t-161 110.5t-99 165t-33.5 203zM238 1483h309l149 -340h-231zM348 498q0 -61 12.5 -116.5t40 -98.5t71.5 -69 t110 -26q63 0 108 26t73 69t40 98.5t12 116.5t-12 117.5t-40 99.5t-73 68.5t-108 25.5q-66 0 -110 -25.5t-71.5 -68.5t-40 -99.5t-12.5 -117.5z" />
<glyph unicode="&#xf3;" horiz-adv-x="1163" d="M68 498q0 109 33.5 203t99 164.5t161 111.5t220.5 41t220 -41t160.5 -111.5t99.5 -164.5t34 -203t-34 -203t-99.5 -165t-160.5 -110.5t-220 -39.5t-220.5 39.5t-161 110.5t-99 165t-33.5 203zM348 498q0 -61 12.5 -116.5t40 -98.5t71.5 -69t110 -26q63 0 108 26t73 69 t40 98.5t12 116.5t-12 117.5t-40 99.5t-73 68.5t-108 25.5q-66 0 -110 -25.5t-71.5 -68.5t-40 -99.5t-12.5 -117.5zM453 1143l149 340h309l-227 -340h-231z" />
<glyph unicode="&#xf4;" horiz-adv-x="1163" d="M68 498q0 109 33.5 203t99 164.5t161 111.5t220.5 41t220 -41t160.5 -111.5t99.5 -164.5t34 -203t-34 -203t-99.5 -165t-160.5 -110.5t-220 -39.5t-220.5 39.5t-161 110.5t-99 165t-33.5 203zM233 1143l222 340h254l221 -340h-236l-112 190l-113 -190h-236zM348 498 q0 -61 12.5 -116.5t40 -98.5t71.5 -69t110 -26q63 0 108 26t73 69t40 98.5t12 116.5t-12 117.5t-40 99.5t-73 68.5t-108 25.5q-66 0 -110 -25.5t-71.5 -68.5t-40 -99.5t-12.5 -117.5z" />
<glyph unicode="&#xf5;" horiz-adv-x="1163" d="M68 498q0 109 33.5 203t99 164.5t161 111.5t220.5 41t220 -41t160.5 -111.5t99.5 -164.5t34 -203t-34 -203t-99.5 -165t-160.5 -110.5t-220 -39.5t-220.5 39.5t-161 110.5t-99 165t-33.5 203zM205 1227q39 121 92 174t154 53q47 0 82.5 -15.5t76.5 -33.5q37 -16 66 -29.5 t51 -13.5q37 0 55.5 24.5t40.5 67.5l156 -78q-29 -61 -53.5 -103t-51 -67.5t-57.5 -37t-74 -11.5t-86 17.5t-84 33.5q-35 16 -63.5 28.5t-52.5 12.5q-37 0 -54.5 -25.5t-40.5 -70.5zM348 498q0 -61 12.5 -116.5t40 -98.5t71.5 -69t110 -26q63 0 108 26t73 69t40 98.5 t12 116.5t-12 117.5t-40 99.5t-73 68.5t-108 25.5q-66 0 -110 -25.5t-71.5 -68.5t-40 -99.5t-12.5 -117.5z" />
<glyph unicode="&#xf6;" horiz-adv-x="1163" d="M68 498q0 109 33.5 203t99 164.5t161 111.5t220.5 41t220 -41t160.5 -111.5t99.5 -164.5t34 -203t-34 -203t-99.5 -165t-160.5 -110.5t-220 -39.5t-220.5 39.5t-161 110.5t-99 165t-33.5 203zM244 1294q0 55 37.5 97.5t101.5 42.5q63 0 101 -42t38 -98q0 -59 -38 -99 t-101 -40t-101 40t-38 99zM348 498q0 -61 12.5 -116.5t40 -98.5t71.5 -69t110 -26q63 0 108 26t73 69t40 98.5t12 116.5t-12 117.5t-40 99.5t-73 68.5t-108 25.5q-66 0 -110 -25.5t-71.5 -68.5t-40 -99.5t-12.5 -117.5zM641 1294q0 55 38 97.5t101 42.5t101.5 -42t38.5 -98 q0 -59 -38 -99t-102 -40q-63 0 -101 40t-38 99z" />
<glyph unicode="&#xf7;" horiz-adv-x="1228" d="M133 557v209h963v-209h-963zM461 264q0 66 44 109t109 43q66 0 109 -43t43 -109t-43 -107.5t-109 -41.5t-109.5 42t-43.5 107zM461 1057q0 66 44 108.5t109 42.5q66 0 109 -42.5t43 -108.5t-43 -108t-109 -42t-109.5 42t-43.5 108z" />
<glyph unicode="&#xf8;" horiz-adv-x="1171" d="M72 -51l139 174q-70 72 -104.5 168t-34.5 207q0 109 33.5 203t99 164.5t161 111.5t220.5 41q82 0 151.5 -18.5t126.5 -51.5l140 176l96 -77l-139 -175q70 -72 104.5 -168t34.5 -206q0 -109 -34 -203t-99.5 -165t-160.5 -110.5t-220 -39.5q-84 0 -152.5 17t-126.5 50 l-139 -174zM352 498q0 -45 5 -86t20 -78l342 432q-53 43 -133 43q-66 0 -110 -25.5t-71.5 -68.5t-40 -99.5t-12.5 -117.5zM451 229q53 -41 135 -41q63 0 108 26t73 69t40 98.5t12 116.5q0 43 -6 85t-20 79z" />
<glyph unicode="&#xf9;" horiz-adv-x="1161" d="M115 479v518h280v-520q0 -135 38 -204.5t134 -69.5q61 0 106.5 28.5t74.5 67.5v698h280v-997h-270v135q-53 -80 -127 -117.5t-164 -37.5q-96 0 -163.5 40.5t-109.5 109.5t-60.5 160t-18.5 189zM287 1483h309l149 -340h-231z" />
<glyph unicode="&#xfa;" horiz-adv-x="1161" d="M115 479v518h280v-520q0 -135 38 -204.5t134 -69.5q61 0 106.5 28.5t74.5 67.5v698h280v-997h-270v135q-53 -80 -127 -117.5t-164 -37.5q-96 0 -163.5 40.5t-109.5 109.5t-60.5 160t-18.5 189zM428 1143l150 340h309l-228 -340h-231z" />
<glyph unicode="&#xfb;" horiz-adv-x="1161" d="M115 479v518h280v-520q0 -135 38 -204.5t134 -69.5q61 0 106.5 28.5t74.5 67.5v698h280v-997h-270v135q-53 -80 -127 -117.5t-164 -37.5q-96 0 -163.5 40.5t-109.5 109.5t-60.5 160t-18.5 189zM236 1143l221 340h254l221 -340h-236l-112 190l-113 -190h-235z" />
<glyph unicode="&#xfc;" horiz-adv-x="1161" d="M115 479v518h280v-520q0 -135 38 -204.5t134 -69.5q61 0 106.5 28.5t74.5 67.5v698h280v-997h-270v135q-53 -80 -127 -117.5t-164 -37.5q-96 0 -163.5 40.5t-109.5 109.5t-60.5 160t-18.5 189zM246 1294q0 55 38 97.5t101 42.5t101 -42t38 -98q0 -59 -37.5 -99 t-101.5 -40q-63 0 -101 40t-38 99zM643 1294q0 55 38 97.5t101 42.5t101.5 -42t38.5 -98q0 -59 -38 -99t-102 -40q-63 0 -101 40t-38 99z" />
<glyph unicode="&#xfd;" horiz-adv-x="1009" d="M10 997h291l211 -741l203 741h284l-477 -1419h-280l135 391zM369 1143l149 340h309l-227 -340h-231z" />
<glyph unicode="&#xfe;" horiz-adv-x="1169" d="M133 -422v1868h281v-561q49 61 119.5 97t171.5 36q90 0 163.5 -37t126 -103.5t81 -159.5t28.5 -208q0 -129 -41 -228.5t-110.5 -167t-163 -101t-199.5 -33.5q-55 0 -98 7t-78 17v-426h-281zM414 213q27 -10 61.5 -15t73.5 -5q143 0 208.5 88t65.5 227q0 125 -52 208 t-161 83q-68 0 -118 -29t-78 -63v-494z" />
<glyph unicode="&#xff;" horiz-adv-x="1009" d="M10 997h291l211 -741l203 741h284l-477 -1419h-280l135 391zM176 1294q0 55 38 97.5t101 42.5t101.5 -42t38.5 -98q0 -59 -38 -99t-102 -40q-63 0 -101 40t-38 99zM573 1294q0 55 38 97.5t102 42.5q63 0 101 -42t38 -98q0 -59 -38 -99t-101 -40t-101.5 40t-38.5 99z" />
<glyph unicode="&#x152;" horiz-adv-x="1994" d="M74 682q0 147 48 275t140 224.5t227.5 152t311.5 55.5q63 0 129.5 -7.5t132.5 -17.5h819v-227h-532v-330h508v-227h-508v-353h538v-227h-825q-66 -10 -132.5 -17.5t-129.5 -7.5q-176 0 -311.5 55.5t-227.5 152t-140 224.5t-48 275zM360 682q0 -223 118 -350t347 -127 q57 0 123 7t115 17v906q-49 10 -114.5 17t-123.5 7q-229 0 -347 -127t-118 -350z" />
<glyph unicode="&#x153;" horiz-adv-x="1785" d="M68 498q0 109 33.5 203t100 164.5t163 111.5t219.5 41q115 0 202.5 -38t161.5 -124q59 78 146 120t204 42q98 0 176 -32t131.5 -89t81 -136t27.5 -173q0 -41 -5 -78t-15 -82h-596q2 -53 16 -97t47 -77t84 -50.5t127 -17.5q70 0 144.5 14.5t146.5 45.5l37 -191 q-61 -35 -161.5 -55t-211.5 -20q-125 0 -226.5 45t-154.5 118q-59 -72 -154.5 -117.5t-209.5 -45.5q-127 0 -223.5 39.5t-161 110.5t-97 165t-32.5 203zM348 498q0 -143 60.5 -226.5t175.5 -83.5q117 0 176 87.5t59 222.5t-59.5 223t-175.5 88q-115 0 -175.5 -84t-60.5 -227 zM1104 616h342q4 37 -1 76t-23.5 70t-51.5 50t-82 19q-76 0 -128 -58t-56 -157z" />
<glyph unicode="&#x178;" horiz-adv-x="1187" d="M0 1364h313l281 -600l280 600h314l-451 -854v-510h-286v510zM240 1618q0 55 37.5 93t101.5 38q61 0 99 -38t38 -93q0 -59 -38 -96t-99 -37q-63 0 -101 37t-38 96zM670 1618q0 55 37.5 93t101.5 38q61 0 99 -38t38 -93q0 -59 -38 -96t-99 -37q-63 0 -101 37t-38 96z" />
<glyph unicode="&#x2c6;" horiz-adv-x="1126" d="M215 1143l221 340h254l221 -340h-235l-113 190l-112 -190h-236z" />
<glyph unicode="&#x2dc;" horiz-adv-x="1122" d="M174 1227q39 121 92 174t154 53q47 0 83 -15.5t77 -33.5q37 -16 65.5 -29.5t50.5 -13.5q37 0 55.5 24.5t41.5 67.5l155 -78q-29 -61 -53.5 -103t-51 -67.5t-57 -37t-73.5 -11.5t-86 17.5t-84 33.5q-35 16 -63.5 28.5t-53.5 12.5q-37 0 -54.5 -25.5t-39.5 -70.5z" />
<glyph unicode="&#x2000;" horiz-adv-x="883" />
<glyph unicode="&#x2001;" horiz-adv-x="1767" />
<glyph unicode="&#x2002;" horiz-adv-x="883" />
<glyph unicode="&#x2003;" horiz-adv-x="1767" />
<glyph unicode="&#x2004;" horiz-adv-x="589" />
<glyph unicode="&#x2005;" horiz-adv-x="441" />
<glyph unicode="&#x2006;" horiz-adv-x="294" />
<glyph unicode="&#x2007;" horiz-adv-x="294" />
<glyph unicode="&#x2008;" horiz-adv-x="220" />
<glyph unicode="&#x2009;" horiz-adv-x="353" />
<glyph unicode="&#x200a;" horiz-adv-x="98" />
<glyph unicode="&#x2010;" horiz-adv-x="786" d="M123 424v227h541v-227h-541z" />
<glyph unicode="&#x2011;" horiz-adv-x="786" d="M123 424v227h541v-227h-541z" />
<glyph unicode="&#x2012;" horiz-adv-x="786" d="M123 424v227h541v-227h-541z" />
<glyph unicode="&#x2013;" horiz-adv-x="1112" d="M133 543v219h846v-219h-846z" />
<glyph unicode="&#x2014;" horiz-adv-x="1656" d="M123 424v227h1411v-227h-1411z" />
<glyph unicode="&#x2018;" horiz-adv-x="577" d="M102 881q4 162 60.5 305t148.5 260l185 -98q-61 -123 -90 -241t-37 -253z" />
<glyph unicode="&#x2019;" horiz-adv-x="577" d="M102 952q61 123 90 241t37 253l267 -27q-4 -162 -60.5 -305t-148.5 -260z" />
<glyph unicode="&#x201a;" horiz-adv-x="591" d="M66 -223q61 123 89.5 240.5t37.5 252.5l266 -26q-4 -162 -60.5 -305.5t-148.5 -260.5z" />
<glyph unicode="&#x201c;" horiz-adv-x="1017" d="M102 881q4 162 60.5 305t148.5 260l185 -98q-61 -123 -90 -241t-37 -253zM543 881q4 162 60 305t149 260l184 -98q-61 -123 -90 -241t-37 -253z" />
<glyph unicode="&#x201d;" horiz-adv-x="1017" d="M102 952q61 123 90 241t37 253l267 -27q-4 -162 -60.5 -305t-148.5 -260zM543 952q61 123 90 241t37 253l266 -27q-4 -162 -60.5 -305t-148.5 -260z" />
<glyph unicode="&#x201e;" horiz-adv-x="1032" d="M66 -223q61 123 89.5 240.5t37.5 252.5l266 -26q-4 -162 -60.5 -305.5t-148.5 -260.5zM506 -223q61 123 90 240.5t37 252.5l266 -26q-4 -162 -60.5 -305.5t-148.5 -260.5z" />
<glyph unicode="&#x2022;" horiz-adv-x="876" d="M143 580q0 61 21.5 115.5t60.5 94t93.5 63.5t117.5 24t118.5 -24t94.5 -63.5t61.5 -94t22.5 -115.5q0 -59 -22.5 -112.5t-61.5 -93.5t-94 -63.5t-119 -23.5q-63 0 -117.5 23.5t-93.5 63.5t-60.5 93.5t-21.5 112.5z" />
<glyph unicode="&#x2026;" horiz-adv-x="1708" d="M123 147q0 66 42 114t120 48t119.5 -48t41.5 -114t-42 -114.5t-119 -48.5q-78 0 -120 48.5t-42 114.5zM692 147q0 66 42 114t120 48t120 -48t42 -114t-42 -114.5t-120 -48.5t-120 48.5t-42 114.5zM1262 147q0 66 42 114t119 48q78 0 120 -48t42 -114t-42 -114.5 t-120 -48.5t-119.5 48.5t-41.5 114.5z" />
<glyph unicode="&#x202f;" horiz-adv-x="353" />
<glyph unicode="&#x2039;" horiz-adv-x="749" d="M82 494l360 436l179 -142l-248 -294l248 -295l-179 -142z" />
<glyph unicode="&#x203a;" horiz-adv-x="749" d="M129 199l248 295l-248 294l178 142l361 -436l-361 -437z" />
<glyph unicode="&#x205f;" horiz-adv-x="441" />
<glyph unicode="&#x20ac;" horiz-adv-x="1179" d="M72 424v172h166q-2 20 -3.5 41.5t-1.5 44.5t1.5 43t3.5 43h-166v172h190q51 217 191.5 333t357.5 116q74 0 147.5 -12.5t128.5 -37.5l-26 -200q-41 16 -95.5 23t-105.5 7q-137 0 -212 -58t-105 -171h440v-172h-467q-2 -23 -2 -43v-43v-44.5t2 -41.5h467v-172h-440 q31 -113 105.5 -171t211.5 -58q51 0 105.5 7t95.5 21l26 -198q-55 -25 -128.5 -37.5t-147.5 -12.5q-217 0 -357.5 116t-191.5 333h-190z" />
<glyph unicode="&#x2122;" horiz-adv-x="1468" d="M61 1247v117h502v-117h-180v-532h-141v532h-181zM645 715l49 649h137l185 -401l184 401h137l49 -649h-137l-28 401l-129 -289h-152l-129 289l-29 -401h-137z" />
<glyph unicode="&#x25fc;" horiz-adv-x="993" d="M0 0v993h993v-993h-993z" />
</font>
</defs>
</svg>
